<mxfile host="app.diagrams.net" modified="2024-05-08T03:15:49.760Z" agent="Mozilla/5.0 (Macintosh; Intel Mac OS X 10.15; rv:125.0) Gecko/20100101 Firefox/125.0" version="24.3.1" etag="CWN4V9v-bd9-wlTwWeTY" type="github">
  <diagram name="Page-1" id="z0lgi1ubrhQPQ89DtfGw">
    <mxGraphModel>
      <root>
        <mxCell id="0" />
        <mxCell id="1" parent="0" />
      </root>
    </mxGraphModel>
  </diagram>
</mxfile>
